<svg width="88" height="60" viewBox="0 0 88 60" fill="none" xmlns="http://www.w3.org/2000/svg">
<path d="M71.247 17.7423C66.1467 17.174 60.478 12.7227 58.2963 8.01467H29.3333V26.7623C39.5927 26.7623 35.5153 40.087 47.652 41.9643C54.9413 43.09 59.598 39.4197 60.049 34.8877C60.775 27.6497 64.9293 21.2293 71.247 17.7423ZM37.7997 11.5127H50.8567C51.5497 11.5127 52.1143 12.0737 52.1143 12.7703C52.1143 13.4633 51.5533 14.0243 50.8567 14.0243H37.7997V11.5127ZM37.7997 16.2317H50.8567C51.5497 16.2317 52.1143 16.7927 52.1143 17.4857C52.1143 18.1787 51.5533 18.7397 50.8567 18.7397H37.7997V16.2317ZM37.7997 23.4587V20.947H50.8567C51.5497 20.947 52.1143 21.508 52.1143 22.2047C52.1143 22.8977 51.5533 23.4587 50.8567 23.4587H37.7997ZM49.258 39.0677C38.94 38.041 39.5633 26.0693 51.1573 27.8587C59.1947 29.1053 58.6557 40.0027 49.258 39.0677ZM25.6667 8.01467V19H3.61533C3.39533 17.1997 2.332 15.3113 0 14.7577V8.01467H25.6667ZM11 5.32334H2.57767V1.54301C2.57767 0.853673 3.267 0.443006 3.91967 0.795006L11 5.32334ZM65.3033 12.9133C64.3977 12.257 63.547 11.52 62.7293 10.6473C64.669 9.55834 66.495 8.83601 68.893 8.66001C69.7767 8.59401 70.1727 9.66101 69.2853 10.0387C67.5033 10.8013 66.286 11.553 65.3033 12.9133ZM54.1823 32.321C52.987 34.411 50.974 36.523 49.2653 36.6623C48.7337 36.7063 48.3707 36.2113 48.576 35.7347C48.9683 34.829 51.4287 33.003 50.8567 30.044C52.6607 30.3373 53.7277 31.2577 54.1823 32.321ZM73.579 20.7343C67.87 23.675 64.0567 29.3657 63.5397 35.8043C66.3887 36.9887 69.6667 39.1667 69.6667 46.577V55.6153C69.6667 58.721 70.9133 59.3333 74.1253 59.3333H83.2663C86.8963 59.3333 88 58.2003 88 55.6703C88 50.0713 86.548 41.6343 80.6777 33.3807C77.8103 29.3437 74.0667 26.5973 73.579 20.7343ZM71.269 35.302C69.8353 35.302 68.6767 34.1433 68.6767 32.706C68.6767 31.2687 69.8353 30.11 71.269 30.11C72.7027 30.11 73.865 31.2687 73.865 32.706C73.865 34.1433 72.699 35.302 71.269 35.302Z" fill="black"/>
</svg>
