<svg width="44" height="34" viewBox="0 0 44 34" fill="none" xmlns="http://www.w3.org/2000/svg">
<path d="M16.5 17L8.31783 26.1098L0 17H5.5C5.5 7.88833 12.8883 0.5 22 0.5C26.3908 0.5 30.3692 2.227 33.3282 5.02467L29.6542 9.11483C27.6723 7.18983 24.9737 6 22 6C15.9335 6 11 10.9335 11 17H16.5ZM35.6822 7.89017L27.5 17H33C33 23.0665 28.0665 28 22 28C19.0245 28 16.3277 26.8083 14.3458 24.8852L10.6718 28.9753C13.629 31.773 17.6092 33.5 22 33.5C31.1117 33.5 38.5 26.1117 38.5 17H44L35.6822 7.89017Z" fill="white"/>
</svg>
