<svg width="88" height="88" viewBox="0 0 88 88" fill="none" xmlns="http://www.w3.org/2000/svg">
<path fill-rule="evenodd" clip-rule="evenodd" d="M9.88167 22.532L22.1247 40.858C18.447 44.191 14.2377 46.963 10.1163 47.634C9.867 48.635 9.713 49.801 9.713 51.1723C9.713 54.5126 11.66 60.1447 17.028 61.9597C17.7907 62.22 18.4433 62.7443 18.865 63.4336C24.959 73.44 34.683 80.667 44 80.667C53.3133 80.667 63.9613 72.824 69.135 63.4336C69.553 62.7406 70.2057 62.22 70.972 61.9597C76.34 60.1447 78.287 54.5126 78.287 51.1723C78.287 50.2117 78.2027 49.3646 78.0817 48.58C73.4727 48.5543 69.212 45.357 65.8607 40.9533L78.144 22.5687C84.645 33.0553 88 46.3176 88 59.1436C88 76.5163 77.891 84.1246 62.4213 81.3636C56.7417 85.6573 50.5047 88.0003 44 88.0003C37.4953 88.0003 31.2547 85.661 25.575 81.3636C10.109 84.1246 0 76.5163 0 59.1436C0 46.303 3.36233 33.026 9.88167 22.532ZM54.285 64.002C54.2777 64.0313 51.6487 72.0723 44 72.0723C36.6337 72.0723 33.726 64.0313 33.715 64.002H54.285ZM37.1433 48.5726C37.1433 45.731 35.222 43.4283 32.857 43.4283C30.492 43.4283 28.5707 45.731 28.5707 48.5726C28.5707 51.4106 30.492 53.7133 32.857 53.7133C35.222 53.7133 37.1433 51.4106 37.1433 48.5726ZM59.4293 48.5726C59.4293 51.4106 57.508 53.7133 55.143 53.7133C52.778 53.7133 50.8567 51.4106 50.8567 48.5726C50.8567 45.731 52.778 43.4283 55.143 43.4283C57.508 43.4283 59.4293 45.731 59.4293 48.5726ZM77 11.0003C66.1797 3.75865 55.0257 -0.0473464 44 0.000320227C33.1247 0.0479869 22.0147 3.86865 11 11.0003L25.6667 33.0003C40.326 28.208 47.751 28.2667 62.3333 33.0003L77 11.0003ZM47.0543 5.50032H40.9457V11.6127H34.8333V17.7213H40.9457V23.8337H47.0543V17.7213H53.1667V11.6127H47.0543V5.50032Z" fill="black"/>
</svg>
