<svg width="82" height="88" viewBox="0 0 82 88" fill="none" xmlns="http://www.w3.org/2000/svg">
<path d="M71.7157 40.634C71.4957 47.707 63.5427 52.096 40.8827 52.096C18.175 52.096 10.2367 47.685 10.0497 40.5863C15.579 40.5863 26.106 33.407 40.8827 33.407C55.2817 33.4033 67.0774 40.634 71.7157 40.634ZM40.8864 55.6307C33.3257 55.6307 27.173 55.1503 22.267 54.175C22.4944 56.21 23.9867 66.3557 31.1 66.3557C37.4104 66.3557 37.2344 61.5303 41.077 61.5303C44.916 61.5303 45.3634 66.3557 51.5344 66.3557C59.1977 66.3557 60.5544 55.1247 60.679 53.9293C55.5934 55.0697 49.0594 55.6307 40.8864 55.6307ZM64.3714 52.9137C64.2247 60.874 61.7424 70.4 56.0114 76.516C52.1687 80.619 47.2957 82.7017 41.5317 82.7017C35.7567 82.7017 30.9057 80.7473 27.118 76.901C21.0827 70.7667 18.6774 60.9693 18.3327 53.2107C16.415 52.6313 14.6294 51.9383 12.8914 50.908C12.8327 59.972 15.4727 72.6953 23.235 80.586C28.0787 85.503 34.235 88 41.5317 88C48.7624 88 55.1423 85.2683 59.986 80.1057C67.7997 71.7713 70.106 59.2827 69.743 50.3653C68.06 51.4947 66.2817 52.2757 64.3714 52.9137ZM41.5024 12.639L40.3547 14.9233L37.7844 15.29L39.6434 17.0683L39.207 19.58L41.5024 18.392L43.8014 19.58L43.3614 17.0683L45.2204 15.29L42.6537 14.9233L41.5024 12.639ZM67.9427 11.8837C67.9427 11.8837 58.6404 9.36833 41 0C23.356 9.36833 14.0574 11.8837 14.0574 11.8837C14.0574 11.8837 9.30902 20.6837 0.666687 30.2757L8.97535 37.2717C14.5964 36.6667 25.9887 29.6377 41 29.6377C56.0114 29.6377 67.4037 36.6667 73.0247 37.2753L81.3334 30.2757C72.691 20.6837 67.9427 11.8837 67.9427 11.8837ZM44.6777 23.6683C42.749 24.1487 42.4594 24.3577 41.4694 25.1423C40.483 24.3577 40.1897 24.1487 38.261 23.6683C35.5807 22.9973 34.0407 21.263 34.0407 18.9053C34.0407 17.589 34.5797 16.3717 35.2067 14.7033C35.9107 12.8223 35.511 12.2283 34.7704 11.4693L34.1434 10.824L37.7624 7.821C38.1217 8.18033 38.624 8.84033 39.5443 8.84033C40.4537 8.84033 41.0697 8.19867 41.4804 7.84667C41.8544 8.17667 42.463 8.84033 43.398 8.84033C44.3074 8.84033 44.795 8.21333 45.1947 7.81L48.799 10.8277L48.1684 11.473C47.4277 12.232 47.028 12.826 47.732 14.707C48.3554 16.3753 48.898 17.589 48.898 18.909C48.898 21.2593 47.358 22.9973 44.6777 23.6683Z" fill="black"/>
</svg>
