<svg width="88" height="88" viewBox="0 0 88 88" fill="none" xmlns="http://www.w3.org/2000/svg">
<path d="M44 7.33333C64.218 7.33333 80.6667 23.782 80.6667 44C80.6667 64.218 64.218 80.6667 44 80.6667C23.782 80.6667 7.33333 64.218 7.33333 44C7.33333 23.782 23.782 7.33333 44 7.33333ZM44 0C19.701 0 0 19.701 0 44C0 68.299 19.701 88 44 88C68.299 88 88 68.299 88 44C88 19.701 68.299 0 44 0ZM58.6667 62.3333H29.3333V55H58.6667V62.3333ZM56.837 39.248L52.0777 44L47.6667 39.5853L52.426 34.8333L47.6667 30.0813L52.0777 25.6667L56.837 30.4187L61.589 25.6667L66 30.0813L61.2443 34.8333L66 39.5853L61.5927 44L56.837 39.248ZM31.1703 39.248L26.411 44L22 39.5853L26.7593 34.8333L22 30.0813L26.411 25.6667L31.1703 30.4187L35.9223 25.6667L40.3333 30.0813L35.5777 34.8333L40.3333 39.5853L35.926 44L31.1703 39.248Z" fill="black"/>
</svg>
